<svg width="1200" height="260" viewBox="0 0 1200 260" fill="none" xmlns="http://www.w3.org/2000/svg" role="img" aria-labelledby="title desc">
  <title id="title">Syarif Laravel AI Skills</title>
  <desc id="desc">72 Laravel skills for Codex, Claude Code, and universal AI assistants.</desc>
  <defs>
    <linearGradient id="blueGradient" x1="0" y1="0" x2="1200" y2="260" gradientUnits="userSpaceOnUse">
      <stop offset="0" stop-color="#0F172A"/>
      <stop offset="0.32" stop-color="#1D4ED8"/>
      <stop offset="0.68" stop-color="#0EA5E9"/>
      <stop offset="1" stop-color="#67E8F9"/>
    </linearGradient>
    <linearGradient id="softWave" x1="0" y1="210" x2="1200" y2="210" gradientUnits="userSpaceOnUse">
      <stop offset="0" stop-color="#E0F2FE" stop-opacity="0.92"/>
      <stop offset="0.5" stop-color="#DBEAFE" stop-opacity="0.7"/>
      <stop offset="1" stop-color="#ECFEFF" stop-opacity="0.92"/>
    </linearGradient>
    <filter id="shadow" x="-10%" y="-20%" width="120%" height="140%" color-interpolation-filters="sRGB">
      <feDropShadow dx="0" dy="18" stdDeviation="20" flood-color="#0F172A" flood-opacity="0.22"/>
    </filter>
  </defs>

  <rect width="1200" height="260" rx="22" fill="url(#blueGradient)"/>
  <path d="M0 190C116 206 238 220 364 214C518 206 617 174 759 184C901 194 1012 235 1200 202V260H0V190Z" fill="url(#softWave)"/>
  <path d="M0 220C164 236 294 250 457 238C620 226 741 196 904 204C1039 211 1113 232 1200 238V260H0V220Z" fill="white" fill-opacity="0.76"/>

  <g filter="url(#shadow)">
    <text x="600" y="112" text-anchor="middle" fill="white" font-family="Inter, Segoe UI, Arial, sans-serif" font-size="68" font-weight="800" letter-spacing="0">Syarif Laravel AI Skills</text>
    <text x="600" y="154" text-anchor="middle" fill="#E0F2FE" font-family="Inter, Segoe UI, Arial, sans-serif" font-size="24" font-weight="700" letter-spacing="0">72 Skills • Codex Plugin • Claude Code • Universal AI</text>
  </g>

  <g opacity="0.9">
    <circle cx="114" cy="68" r="34" fill="#93C5FD" fill-opacity="0.18"/>
    <circle cx="1056" cy="76" r="46" fill="#22D3EE" fill-opacity="0.18"/>
    <circle cx="1012" cy="164" r="18" fill="#DBEAFE" fill-opacity="0.18"/>
  </g>
</svg>
